<svg xmlns="http://www.w3.org/2000/svg" width="20" height="20" viewBox="0 0 20 20" fill="none">
  <path d="M10.0002 3.33398C10.4602 3.33416 10.8331 3.70701 10.8333 4.16699V9.16797H15.8333C16.2933 9.16814 16.6663 9.54085 16.6663 10.001C16.6661 10.461 16.2932 10.8338 15.8333 10.834H10.8333V15.834C10.8331 16.294 10.4602 16.6668 10.0002 16.667C9.54012 16.667 9.16741 16.2941 9.16724 15.834V10.834H4.16626C3.70628 10.8338 3.33343 10.461 3.33325 10.001C3.33325 9.54085 3.70617 9.16814 4.16626 9.16797H9.16724V4.16699C9.16741 3.7069 9.54012 3.33398 10.0002 3.33398Z" fill="#525965"/>
</svg>
